<svg width="20" height="16" viewBox="0 0 20 16" fill="none" xmlns="http://www.w3.org/2000/svg">
<g clip-path="url(#clip0_115_204)">
<path d="M19.1683 10.6668C19.0952 11.0529 19.0511 11.4475 18.9443 11.8242C18.4938 13.4125 17.5222 14.5854 16.0748 15.3591C15.209 15.822 14.2735 16.0004 13.2985 16.0004C9.51877 15.9995 5.73901 16 1.95878 16C1.4896 16 1.19196 15.8003 1.08368 15.418C0.951504 14.9508 1.28008 14.4701 1.76192 14.4301C1.84864 14.423 1.93629 14.4253 2.02394 14.4253C5.80979 14.4253 9.59611 14.4282 13.382 14.4235C14.8186 14.4216 15.9754 13.8419 16.8336 12.6789C17.9431 11.1753 17.8264 8.94055 16.5768 7.55287C15.719 6.60028 14.6508 6.13599 13.3792 6.13552C9.83001 6.13411 6.28085 6.13505 2.73217 6.13552C2.67733 6.13552 2.62296 6.1407 2.5264 6.14588C2.61921 6.25419 2.68952 6.33706 2.76076 6.41899C3.61009 7.39607 4.46081 8.37126 5.30732 9.35021C5.62699 9.71985 5.61902 10.1714 5.29842 10.4799C4.96422 10.8015 4.47253 10.7694 4.13833 10.3942C3.7807 9.99296 3.4315 9.5833 3.07856 9.17787C2.12518 8.08308 1.1718 6.9897 0.218894 5.89585C-0.0707747 5.56341 -0.0745245 5.13914 0.216082 4.80482C1.51725 3.30931 2.81982 1.81568 4.12146 0.320639C4.3502 0.0578884 4.63049 -0.0645402 4.97219 0.0343444C5.28764 0.125695 5.47606 0.34795 5.53043 0.67474C5.57449 0.942199 5.47091 1.16304 5.29842 1.36081C4.54659 2.22299 3.79617 3.08705 3.04528 3.95064C2.87841 4.14276 2.71202 4.33582 2.51375 4.56514C2.62718 4.56514 2.69843 4.56514 2.76967 4.56514C6.23164 4.56514 9.69314 4.56938 13.1551 4.56232C13.9993 4.56043 14.8223 4.65367 15.606 4.98375C17.0928 5.61002 18.1465 6.67233 18.7601 8.17113C18.9724 8.69004 19.0957 9.23108 19.1416 9.79002C19.1449 9.83239 19.1589 9.87336 19.1683 9.91527C19.1683 10.1658 19.1683 10.4163 19.1683 10.6668Z" fill="#447893"/>
</g>
</svg>
