<svg width="197" height="69" viewBox="0 0 197 69" fill="none" xmlns="http://www.w3.org/2000/svg">
<path d="M82.5392 11.5792H80.0565V0.227295H82.5392V5.10042L86.5904 0.227295H88.5502V1.36367L84.8875 5.67598L88.9708 10.3986V11.5792H86.7861L82.5392 6.64411V11.5792Z" fill="#ffffff"/>
<path d="M91.4331 11.5792V10.4428L92.7474 8.11402L89.1724 1.40794V0.227295H91.3571L94.1232 5.52545L96.7431 0.227295H98.7001V1.36367L93.3929 11.5792H91.4331Z" fill="#ffffff"/>
<path d="M98.884 9.43042V8.29405H100.844C100.902 8.7486 101.428 9.73149 102.894 9.73149C104.031 9.73149 104.644 9.11165 104.644 8.20255C104.644 7.34068 104.106 6.73264 102.818 6.73264H101.472V4.8259H102.637C103.7 4.8259 104.238 4.1913 104.238 3.3737C104.238 2.57086 103.566 2.05728 102.728 2.05728C101.486 2.05728 101.069 2.87488 101.022 3.35894H99.0622V2.22552C99.2141 1.4522 100.231 0 102.848 0C105.091 0 106.633 1.15113 106.633 3.13167C106.633 4.22082 106.034 5.14467 105.032 5.56971C106.303 5.90324 107.051 6.90089 107.051 8.24978C107.051 10.369 105.57 11.8065 102.967 11.8065C100.26 11.8065 99.0476 10.2923 98.884 9.43042Z" fill="#ffffff"/>
<path d="M112.191 9.48948C113.284 9.48948 113.97 8.92867 113.97 7.9015C113.97 7.03963 113.313 6.40208 112.191 6.40208H110.667V9.48948H112.191ZM108.228 0.227295H115.556V2.36132H110.71V4.46582H112.206C114.928 4.46582 116.453 5.95048 116.453 7.9015C116.453 9.94403 114.957 11.5792 112.206 11.5792H108.228V0.227295Z" fill="#ffffff"/>
<path d="M121.923 2.93688L120.457 7.11342H123.39L121.923 2.93688ZM116.929 11.5792V10.5196L120.743 0.227295H123.27L127.07 10.3691V11.5792H124.917L124.05 9.17365H119.771L118.918 11.5792H116.929Z" fill="#ffffff"/>
<path d="M127.327 5.90324C127.327 2.34654 129.512 0 132.815 0C135.806 0 136.898 1.62044 137.079 2.3613V3.51243H135.12C135.029 3.07264 134.462 2.13402 132.847 2.13402C130.993 2.13402 129.81 3.5567 129.81 5.88848C129.81 8.17303 130.993 9.6577 132.847 9.6577C134.433 9.6577 135.09 8.66005 135.196 8.22026H137.155V9.37139C136.916 10.2805 135.599 11.8094 132.818 11.8094C129.377 11.8065 127.327 9.3832 127.327 5.90324Z" fill="#ffffff"/>
<path d="M137.862 5.90324C137.862 2.34654 140.047 0 143.351 0C146.341 0 147.434 1.62044 147.615 2.3613V3.51243H145.655C145.564 3.07264 144.998 2.13402 143.383 2.13402C141.528 2.13402 140.345 3.5567 140.345 5.88848C140.345 8.17303 141.528 9.6577 143.383 9.6577C144.969 9.6577 145.626 8.66005 145.731 8.22026H147.691V9.37139C147.451 10.2805 146.134 11.8094 143.353 11.8094C139.91 11.8065 137.862 9.3832 137.862 5.90324Z" fill="#ffffff"/>
<path d="M151.476 11.5792H148.994V0.227295H151.476V5.10042L155.53 0.227295H157.487V1.36367L153.825 5.67598L157.908 10.3986V11.5792H155.723L151.476 6.64411V11.5792Z" fill="#ffffff"/>
<path d="M163.776 2.93688L162.309 7.11342H165.242L163.776 2.93688ZM158.778 11.5792V10.5196L162.593 0.227295H165.119L168.919 10.3691V11.5792H166.767L165.899 9.17365H161.62L160.767 11.5792H158.778Z" fill="#ffffff"/>
<path d="M175.85 5.47822V2.31409H174.428C173.321 2.31409 172.693 2.94869 172.693 3.87254C172.693 4.81116 173.35 5.47822 174.428 5.47822H175.85ZM174.653 7.49123L171.855 11.5792H169.79V10.3986L172.287 6.91862C171.089 6.46407 170.207 5.3454 170.207 3.86074C170.207 1.62046 171.837 0.227295 174.41 0.227295H178.283V11.5792H175.801V7.49123H174.653Z" fill="#ffffff"/>
<path d="M82.3873 21.2929V29.0409H80.0565V17.689H83.1058L85.828 23.4712L88.4918 17.689H91.5266V29.0409H89.0585V21.2929L86.5466 26.6353H84.8875L82.3873 21.2929Z" fill="#ffffff"/>
<path d="M93.209 17.689H100.254V19.823H95.6917V22.2286H99.7312V24.1973H95.6917V26.9069H100.254V29.0409H93.209V17.689Z" fill="#ffffff"/>
<path d="M108.827 26.9069V19.823H105.701L105.611 22.6683C105.506 25.3927 104.834 26.5733 104.609 26.9069H108.827ZM101.197 26.9069H102.109C102.392 26.6796 103.274 25.3012 103.365 22.5473L103.499 17.689H111.306V26.9069H112.878V31.3107H110.62V29.0409H103.455V31.3107H101.197V26.9069Z" fill="#ffffff"/>
<path d="M113.833 17.689H116.315V25.2274L120.936 17.689H123.404V29.0409H120.936V21.5644L116.315 29.0409H113.833V17.689Z" fill="#ffffff"/>
<path d="M129.453 20.3986L127.987 24.5751H130.92L129.453 20.3986ZM124.456 29.0409V27.9813L128.27 17.689H130.797L134.597 27.8307V29.0409H132.444L131.577 26.6353H127.298L126.445 29.0409H124.456Z" fill="#ffffff"/>
<path d="M138.619 17.689H145.439V19.823H141.101V29.0409H138.619V17.689Z" fill="#ffffff"/>
<path d="M150.197 23.2439C151.348 23.2439 152.052 22.5178 152.052 21.4434C152.052 20.4901 151.38 19.7787 150.197 19.7787H149.046V23.2439H150.197ZM146.607 17.689H150.211C152.858 17.689 154.534 19.1412 154.534 21.4287C154.534 23.4269 153.083 25.3337 150.211 25.3337H149.09V29.0409H146.607V17.689Z" fill="#ffffff"/>
<path d="M157.067 29.0409V27.9075L158.381 25.5757L154.809 18.8696V17.689H156.991L159.76 22.9871L162.377 17.689H164.337V18.8253L159.026 29.0409H157.067Z" fill="#ffffff"/>
<path d="M165.858 17.689H175.071V29.0409H172.588V19.823H168.341V29.0409H165.858V17.689Z" fill="#ffffff"/>
<path d="M176.592 17.689H185.807V29.0409H183.325V19.823H179.075V29.0409H176.592V17.689Z" fill="#ffffff"/>
<path d="M191.853 20.3986L190.387 24.5751H193.32L191.853 20.3986ZM186.856 29.0409V27.9813L190.671 17.689H193.197L196.997 27.8307V29.0409H194.844L193.977 26.6353H189.698L188.845 29.0409H186.856Z" fill="#ffffff"/>
<path d="M82.5392 11.5792H80.0565V0.227295H82.5392V5.10042L86.5904 0.227295H88.5502V1.36367L84.8875 5.67598L88.9708 10.3986V11.5792H86.7861L82.5392 6.64411V11.5792Z" fill="#ffffff"/>
<path d="M91.4331 11.5792V10.4428L92.7474 8.11402L89.1724 1.40794V0.227295H91.3571L94.1232 5.52545L96.7431 0.227295H98.7001V1.36367L93.3929 11.5792H91.4331Z" fill="#ffffff"/>
<path d="M98.884 9.43042V8.29405H100.844C100.902 8.7486 101.428 9.73149 102.894 9.73149C104.031 9.73149 104.644 9.11165 104.644 8.20255C104.644 7.34068 104.106 6.73264 102.818 6.73264H101.472V4.8259H102.637C103.7 4.8259 104.238 4.1913 104.238 3.3737C104.238 2.57086 103.566 2.05728 102.728 2.05728C101.486 2.05728 101.069 2.87488 101.022 3.35894H99.0622V2.22552C99.2141 1.4522 100.231 0 102.848 0C105.091 0 106.633 1.15113 106.633 3.13167C106.633 4.22082 106.034 5.14467 105.032 5.56971C106.303 5.90324 107.051 6.90089 107.051 8.24978C107.051 10.369 105.57 11.8065 102.967 11.8065C100.26 11.8065 99.0476 10.2923 98.884 9.43042Z" fill="#ffffff"/>
<path d="M112.191 9.48948C113.284 9.48948 113.97 8.92867 113.97 7.9015C113.97 7.03963 113.313 6.40208 112.191 6.40208H110.667V9.48948H112.191ZM108.228 0.227295H115.556V2.36132H110.71V4.46582H112.206C114.928 4.46582 116.453 5.95048 116.453 7.9015C116.453 9.94403 114.957 11.5792 112.206 11.5792H108.228V0.227295Z" fill="#ffffff"/>
<path d="M121.923 2.93688L120.457 7.11342H123.39L121.923 2.93688ZM116.929 11.5792V10.5196L120.743 0.227295H123.27L127.07 10.3691V11.5792H124.917L124.05 9.17365H119.771L118.918 11.5792H116.929Z" fill="#ffffff"/>
<path d="M127.327 5.90324C127.327 2.34654 129.512 0 132.815 0C135.806 0 136.898 1.62044 137.079 2.3613V3.51243H135.12C135.029 3.07264 134.462 2.13402 132.847 2.13402C130.993 2.13402 129.81 3.5567 129.81 5.88848C129.81 8.17303 130.993 9.6577 132.847 9.6577C134.433 9.6577 135.09 8.66005 135.196 8.22026H137.155V9.37139C136.916 10.2805 135.599 11.8094 132.818 11.8094C129.377 11.8065 127.327 9.3832 127.327 5.90324Z" fill="#ffffff"/>
<path d="M137.862 5.90324C137.862 2.34654 140.047 0 143.351 0C146.341 0 147.434 1.62044 147.615 2.3613V3.51243H145.655C145.564 3.07264 144.998 2.13402 143.383 2.13402C141.528 2.13402 140.345 3.5567 140.345 5.88848C140.345 8.17303 141.528 9.6577 143.383 9.6577C144.969 9.6577 145.626 8.66005 145.731 8.22026H147.691V9.37139C147.451 10.2805 146.134 11.8094 143.353 11.8094C139.91 11.8065 137.862 9.3832 137.862 5.90324Z" fill="#ffffff"/>
<path d="M151.476 11.5792H148.994V0.227295H151.476V5.10042L155.53 0.227295H157.487V1.36367L153.825 5.67598L157.908 10.3986V11.5792H155.723L151.476 6.64411V11.5792Z" fill="#ffffff"/>
<path d="M163.776 2.93688L162.309 7.11342H165.242L163.776 2.93688ZM158.778 11.5792V10.5196L162.593 0.227295H165.119L168.919 10.3691V11.5792H166.767L165.899 9.17365H161.62L160.767 11.5792H158.778Z" fill="#ffffff"/>
<path d="M175.85 5.47822V2.31409H174.428C173.321 2.31409 172.693 2.94869 172.693 3.87254C172.693 4.81116 173.35 5.47822 174.428 5.47822H175.85ZM174.653 7.49123L171.855 11.5792H169.79V10.3986L172.287 6.91862C171.089 6.46407 170.207 5.3454 170.207 3.86074C170.207 1.62046 171.837 0.227295 174.41 0.227295H178.283V11.5792H175.801V7.49123H174.653Z" fill="#ffffff"/>
<path d="M82.3873 21.2929V29.0409H80.0565V17.689H83.1058L85.828 23.4712L88.4918 17.689H91.5266V29.0409H89.0585V21.2929L86.5466 26.6353H84.8875L82.3873 21.2929Z" fill="#ffffff"/>
<path d="M93.209 17.689H100.254V19.823H95.6917V22.2286H99.7312V24.1973H95.6917V26.9069H100.254V29.0409H93.209V17.689Z" fill="#ffffff"/>
<path d="M108.827 26.9069V19.823H105.701L105.611 22.6683C105.506 25.3927 104.834 26.5733 104.609 26.9069H108.827ZM101.197 26.9069H102.109C102.392 26.6796 103.274 25.3012 103.365 22.5473L103.499 17.689H111.306V26.9069H112.878V31.3107H110.62V29.0409H103.455V31.3107H101.197V26.9069Z" fill="#ffffff"/>
<path d="M113.833 17.689H116.315V25.2274L120.936 17.689H123.404V29.0409H120.936V21.5644L116.315 29.0409H113.833V17.689Z" fill="#ffffff"/>
<path d="M129.453 20.3986L127.987 24.5751H130.92L129.453 20.3986ZM124.456 29.0409V27.9813L128.27 17.689H130.797L134.597 27.8307V29.0409H132.444L131.577 26.6353H127.298L126.445 29.0409H124.456Z" fill="#ffffff"/>
<path d="M138.619 17.689H145.439V19.823H141.101V29.0409H138.619V17.689Z" fill="#ffffff"/>
<path d="M150.197 23.2439C151.348 23.2439 152.052 22.5178 152.052 21.4434C152.052 20.4901 151.38 19.7787 150.197 19.7787H149.046V23.2439H150.197ZM146.607 17.689H150.211C152.858 17.689 154.534 19.1412 154.534 21.4287C154.534 23.4269 153.083 25.3337 150.211 25.3337H149.09V29.0409H146.607V17.689Z" fill="#ffffff"/>
<path d="M157.067 29.0409V27.9075L158.381 25.5757L154.809 18.8696V17.689H156.991L159.76 22.9871L162.377 17.689H164.337V18.8253L159.026 29.0409H157.067Z" fill="#ffffff"/>
<path d="M165.858 17.689H175.071V29.0409H172.588V19.823H168.341V29.0409H165.858V17.689Z" fill="#ffffff"/>
<path d="M176.592 17.689H185.807V29.0409H183.325V19.823H179.075V29.0409H176.592V17.689Z" fill="#ffffff"/>
<path d="M191.853 20.3986L190.387 24.5751H193.32L191.853 20.3986ZM186.856 29.0409V27.9813L190.671 17.689H193.197L196.997 27.8307V29.0409H194.844L193.977 26.6353H189.698L188.845 29.0409H186.856Z" fill="#ffffff"/>
<path d="M82.5392 11.5792H80.0565V0.227295H82.5392V5.10042L86.5904 0.227295H88.5502V1.36367L84.8875 5.67598L88.9708 10.3986V11.5792H86.7861L82.5392 6.64411V11.5792Z" fill="#ffffff"/>
<path d="M91.4331 11.5792V10.4428L92.7474 8.11402L89.1724 1.40794V0.227295H91.3571L94.1232 5.52545L96.7431 0.227295H98.7001V1.36367L93.3929 11.5792H91.4331Z" fill="#ffffff"/>
<path d="M98.884 9.43042V8.29405H100.844C100.902 8.7486 101.428 9.73149 102.894 9.73149C104.031 9.73149 104.644 9.11165 104.644 8.20255C104.644 7.34068 104.106 6.73264 102.818 6.73264H101.472V4.8259H102.637C103.7 4.8259 104.238 4.1913 104.238 3.3737C104.238 2.57086 103.566 2.05728 102.728 2.05728C101.486 2.05728 101.069 2.87488 101.022 3.35894H99.0622V2.22552C99.2141 1.4522 100.231 0 102.848 0C105.091 0 106.633 1.15113 106.633 3.13167C106.633 4.22082 106.034 5.14467 105.032 5.56971C106.303 5.90324 107.051 6.90089 107.051 8.24978C107.051 10.369 105.57 11.8065 102.967 11.8065C100.26 11.8065 99.0476 10.2923 98.884 9.43042Z" fill="#ffffff"/>
<path d="M112.191 9.48948C113.284 9.48948 113.97 8.92867 113.97 7.9015C113.97 7.03963 113.313 6.40208 112.191 6.40208H110.667V9.48948H112.191ZM108.228 0.227295H115.556V2.36132H110.71V4.46582H112.206C114.928 4.46582 116.453 5.95048 116.453 7.9015C116.453 9.94403 114.957 11.5792 112.206 11.5792H108.228V0.227295Z" fill="#ffffff"/>
<path d="M121.923 2.93688L120.457 7.11342H123.39L121.923 2.93688ZM116.929 11.5792V10.5196L120.743 0.227295H123.27L127.07 10.3691V11.5792H124.917L124.05 9.17365H119.771L118.918 11.5792H116.929Z" fill="#ffffff"/>
<path d="M127.327 5.90324C127.327 2.34654 129.512 0 132.815 0C135.806 0 136.898 1.62044 137.079 2.3613V3.51243H135.12C135.029 3.07264 134.462 2.13402 132.847 2.13402C130.993 2.13402 129.81 3.5567 129.81 5.88848C129.81 8.17303 130.993 9.6577 132.847 9.6577C134.433 9.6577 135.09 8.66005 135.196 8.22026H137.155V9.37139C136.916 10.2805 135.599 11.8094 132.818 11.8094C129.377 11.8065 127.327 9.3832 127.327 5.90324Z" fill="#ffffff"/>
<path d="M137.862 5.90324C137.862 2.34654 140.047 0 143.351 0C146.341 0 147.434 1.62044 147.615 2.3613V3.51243H145.655C145.564 3.07264 144.998 2.13402 143.383 2.13402C141.528 2.13402 140.345 3.5567 140.345 5.88848C140.345 8.17303 141.528 9.6577 143.383 9.6577C144.969 9.6577 145.626 8.66005 145.731 8.22026H147.691V9.37139C147.451 10.2805 146.134 11.8094 143.353 11.8094C139.91 11.8065 137.862 9.3832 137.862 5.90324Z" fill="#ffffff"/>
<path d="M151.476 11.5792H148.994V0.227295H151.476V5.10042L155.53 0.227295H157.487V1.36367L153.825 5.67598L157.908 10.3986V11.5792H155.723L151.476 6.64411V11.5792Z" fill="#ffffff"/>
<path d="M163.776 2.93688L162.309 7.11342H165.242L163.776 2.93688ZM158.778 11.5792V10.5196L162.593 0.227295H165.119L168.919 10.3691V11.5792H166.767L165.899 9.17365H161.62L160.767 11.5792H158.778Z" fill="#ffffff"/>
<path d="M175.85 5.47822V2.31409H174.428C173.321 2.31409 172.693 2.94869 172.693 3.87254C172.693 4.81116 173.35 5.47822 174.428 5.47822H175.85ZM174.653 7.49123L171.855 11.5792H169.79V10.3986L172.287 6.91862C171.089 6.46407 170.207 5.3454 170.207 3.86074C170.207 1.62046 171.837 0.227295 174.41 0.227295H178.283V11.5792H175.801V7.49123H174.653Z" fill="#ffffff"/>
<path d="M82.3873 21.2929V29.0409H80.0565V17.689H83.1058L85.828 23.4712L88.4918 17.689H91.5266V29.0409H89.0585V21.2929L86.5466 26.6353H84.8875L82.3873 21.2929Z" fill="#ffffff"/>
<path d="M93.209 17.689H100.254V19.823H95.6917V22.2286H99.7312V24.1973H95.6917V26.9069H100.254V29.0409H93.209V17.689Z" fill="#ffffff"/>
<path d="M108.827 26.9069V19.823H105.701L105.611 22.6683C105.506 25.3927 104.834 26.5733 104.609 26.9069H108.827ZM101.197 26.9069H102.109C102.392 26.6796 103.274 25.3012 103.365 22.5473L103.499 17.689H111.306V26.9069H112.878V31.3107H110.62V29.0409H103.455V31.3107H101.197V26.9069Z" fill="#ffffff"/>
<path d="M113.833 17.689H116.315V25.2274L120.936 17.689H123.404V29.0409H120.936V21.5644L116.315 29.0409H113.833V17.689Z" fill="#ffffff"/>
<path d="M129.453 20.3986L127.987 24.5751H130.92L129.453 20.3986ZM124.456 29.0409V27.9813L128.27 17.689H130.797L134.597 27.8307V29.0409H132.444L131.577 26.6353H127.298L126.445 29.0409H124.456Z" fill="#ffffff"/>
<path d="M138.619 17.689H145.439V19.823H141.101V29.0409H138.619V17.689Z" fill="#ffffff"/>
<path d="M150.197 23.2439C151.348 23.2439 152.052 22.5178 152.052 21.4434C152.052 20.4901 151.38 19.7787 150.197 19.7787H149.046V23.2439H150.197ZM146.607 17.689H150.211C152.858 17.689 154.534 19.1412 154.534 21.4287C154.534 23.4269 153.083 25.3337 150.211 25.3337H149.09V29.0409H146.607V17.689Z" fill="#ffffff"/>
<path d="M157.067 29.0409V27.9075L158.381 25.5757L154.809 18.8696V17.689H156.991L159.76 22.9871L162.377 17.689H164.337V18.8253L159.026 29.0409H157.067Z" fill="#ffffff"/>
<path d="M165.858 17.689H175.071V29.0409H172.588V19.823H168.341V29.0409H165.858V17.689Z" fill="#ffffff"/>
<path d="M176.592 17.689H185.807V29.0409H183.325V19.823H179.075V29.0409H176.592V17.689Z" fill="#ffffff"/>
<path d="M191.853 20.3986L190.387 24.5751H193.32L191.853 20.3986ZM186.856 29.0409V27.9813L190.671 17.689H193.197L196.997 27.8307V29.0409H194.844L193.977 26.6353H189.698L188.845 29.0409H186.856Z" fill="#ffffff"/>
<path d="M38.3386 34.4985V50.2307H29.8478V18.7693H38.3386V34.4985L68.1864 4.29461V0H0V69H68.1864V64.7024L38.3386 34.4985Z" fill="#ffffff"/>
</svg>
