<svg width="34" height="60" viewBox="0 0 34 60" fill="none" xmlns="http://www.w3.org/2000/svg">
<path d="M3.65552 0C4.6198 0.312098 5.3171 0.979984 6.01125 1.67284C14.7076 10.3242 23.4102 18.9714 32.119 27.6145C33.3346 28.8223 33.5953 30.2392 32.8258 31.5344C32.6407 31.8339 32.418 32.1086 32.163 32.3521C23.2552 41.2095 14.3442 50.0626 5.43016 58.9117C3.73403 60.5939 1.27466 60.2849 0.31352 58.2688C0.066249 57.7862 -0.0381554 57.2438 0.0124398 56.7046C0.063035 56.1654 0.266545 55.6515 0.59934 55.2227C0.800404 54.9574 1.02425 54.7099 1.26837 54.483C9.30298 46.4974 17.3386 38.515 25.3754 30.5357C25.5563 30.386 25.7508 30.2533 25.9564 30.1393V29.8772C25.7507 29.7622 25.5562 29.6284 25.3754 29.4777C17.2926 21.4568 9.214 13.4337 1.1396 5.40865C-0.094805 4.18211 -0.33038 2.73709 0.470569 1.43252C0.935433 0.671001 1.6767 0.296494 2.47451 0H3.65552Z" fill="#447893"/>
</svg>
